<svg width="500" height="500" viewBox="0 0 500 500" fill="none" xmlns="http://www.w3.org/2000/svg">
<g clip-path="url(#clip0)">
<path d="M250 500C242.2 500 235.5 495.7 229.1 491.5C224.4 488.4 219.9 485.6 215.9 485C211.7 484.4 206.5 486 201 487.6C193.7 489.8 186.2 492 178.9 489.9C171.5 487.7 166.3 481.8 161.3 476C157.6 471.7 154.2 467.7 150.4 466C146.6 464.3 141.2 464.3 135.4 464.3C127.8 464.3 119.9 464.4 113.5 460.3C107 456.2 103.8 449 100.7 442.1C98.4 436.9 96.2 432.1 93 429.4C89.8 426.7 84.7 425.2 79.2 423.7C71.9 421.6 64.3 419.5 59.2 413.7C54.2 408 53.1 400.2 52.1 392.7C51.3 387.1 50.6 381.8 48.3 378.3C46.1 374.8 41.5 372 36.7 369C30.2 365 23.5 360.8 20.3 353.8C17.1 346.9 18.3 339.2 19.4 331.8C20.3 326.2 21.1 320.9 19.9 316.8C18.7 312.9 15.2 308.9 11.5 304.7C6.39998 299 1.19998 293.1 0.099981 285.4C-1.00002 278 2.29998 271 5.49998 264.2C7.89998 259 10.2 254.1 10.2 249.8C10.2 245.5 7.89998 240.6 5.49998 235.4C2.29998 228.6 -1.00002 221.6 0.099981 214.2C1.19998 206.6 6.49998 200.7 11.5 194.9C15.2 190.7 18.8 186.7 19.9 182.8C21.1 178.8 20.3 173.5 19.4 167.8C18.3 160.3 17.1 152.6 20.3 145.8C23.5 138.8 30.2 134.7 36.7 130.6C41.5 127.6 46 124.8 48.3 121.3C50.6 117.8 51.3 112.5 52.1 106.9C53.1 99.4 54.2 91.7 59.2 85.9C64.2 80.2 71.8 78 79.2 75.9C84.7 74.4 89.9 72.9 93 70.2C96.1 67.5 98.3 62.6 100.7 57.5C103.8 50.6 107 43.4 113.5 39.3C119.9 35.2 127.8 35.3 135.4 35.3C141.1 35.3 146.5 35.4 150.4 33.6C154.2 31.9 157.6 27.9 161.3 23.6C166.3 17.8 171.4 11.8 178.9 9.69998C186.2 7.59998 193.7 9.79998 201 12C206.5 13.7 211.7 15.2 215.9 14.6C219.9 14 224.4 11.1 229.1 8.09998C235.5 3.89998 242.2 -0.400024 250 -0.400024C257.8 -0.400024 264.5 3.89998 270.9 8.09998C275.6 11.2 280.1 14 284.1 14.6C288.3 15.2 293.5 13.6 299 12C306.3 9.79998 313.8 7.59998 321.1 9.69998C328.5 11.9 333.7 17.8 338.7 23.6C342.4 27.9 345.8 31.9 349.6 33.6C353.4 35.3 358.8 35.3 364.6 35.3C372.2 35.2 380.1 35.2 386.5 39.3C393 43.4 396.2 50.6 399.3 57.5C401.6 62.7 403.8 67.5 407 70.2C410.2 72.9 415.3 74.4 420.8 75.9C428.1 78 435.7 80.1 440.8 85.9C445.8 91.6 446.9 99.4 447.9 106.9C448.7 112.5 449.4 117.8 451.7 121.3C453.9 124.8 458.5 127.6 463.3 130.6C469.8 134.6 476.5 138.8 479.7 145.8C482.9 152.7 481.7 160.4 480.6 167.8C479.7 173.4 478.9 178.7 480.1 182.8C481.3 186.7 484.8 190.7 488.5 194.9C493.6 200.6 498.8 206.5 499.9 214.2C501 221.6 497.7 228.6 494.5 235.4C492.1 240.6 489.8 245.5 489.8 249.8C489.8 254.1 492.1 259 494.5 264.2C497.7 271 501 278 499.9 285.4C498.8 293 493.5 298.9 488.5 304.7C484.8 308.9 481.2 312.9 480.1 316.8C478.9 320.8 479.7 326.1 480.6 331.8C481.7 339.3 482.9 347 479.7 353.8C476.5 360.8 469.8 364.9 463.3 369C458.5 372 454 374.8 451.7 378.3C449.4 381.8 448.7 387.1 447.9 392.7C446.9 400.2 445.8 407.9 440.8 413.7C435.8 419.4 428.2 421.6 420.8 423.7C415.3 425.2 410.1 426.7 407 429.4C403.9 432.1 401.7 437 399.3 442.1C396.2 449 393 456.2 386.5 460.3C380.1 464.4 372.2 464.3 364.6 464.3C358.9 464.3 353.5 464.2 349.6 466C345.8 467.7 342.4 471.7 338.7 476C333.7 481.8 328.6 487.8 321.1 489.9C313.8 492 306.3 489.8 299 487.6C293.5 485.9 288.3 484.4 284.1 485C280.1 485.6 275.6 488.5 270.9 491.5C264.5 495.7 257.8 500 250 500ZM213.9 474.4C215 474.4 216.2 474.5 217.3 474.6C223.7 475.5 229.3 479.2 234.8 482.7C240.2 486.2 245.3 489.5 249.9 489.5C254.5 489.5 259.6 486.2 265 482.7C270.5 479.2 276.1 475.5 282.5 474.6C289 473.7 295.6 475.6 302 477.6C308 479.4 313.8 481.1 318 479.9C322.4 478.6 326.3 474.1 330.5 469.2C334.8 464.2 339.2 459.1 345.1 456.5C351.1 453.8 357.9 453.8 364.5 453.9C370.8 453.9 376.8 454 380.6 451.6C384.4 449.2 386.9 443.7 389.5 438C392.2 432 395 425.9 399.9 421.6C404.8 417.4 411.4 415.5 417.8 413.7C423.9 412 429.7 410.3 432.7 407C435.7 403.6 436.5 397.7 437.3 391.5C438.2 385 439.1 378.3 442.7 372.8C446.2 367.4 452 363.8 457.6 360.3C463 356.9 468.1 353.7 470 349.6C471.9 345.6 471 339.7 470 333.5C469 327 468 320.3 469.8 314C471.6 307.9 476.1 302.8 480.4 298C484.6 293.2 488.6 288.7 489.3 284.2C489.9 279.9 487.4 274.6 484.7 268.9C481.9 262.9 479 256.7 479 250.1C479 243.5 481.9 237.3 484.7 231.3C487.4 225.7 489.9 220.3 489.3 216C488.6 211.5 484.6 207 480.4 202.2C476.1 197.3 471.6 192.3 469.8 186.2C467.9 179.9 469 173.2 470 166.7C470.9 160.5 471.8 154.6 470 150.6C468.1 146.5 463 143.3 457.6 139.9C452 136.4 446.3 132.8 442.7 127.4C439.2 121.9 438.2 115.2 437.3 108.7C436.4 102.5 435.6 96.6 432.7 93.2C429.7 89.8 424 88.2 417.8 86.5C411.4 84.7 404.9 82.8 399.9 78.6C395 74.4 392.2 68.2 389.5 62.2C386.9 56.4 384.5 51 380.6 48.6C376.8 46.2 370.8 46.2 364.5 46.3C357.9 46.3 351 46.4 345.1 43.7C339.2 41 334.8 35.9 330.5 31C326.4 26.2 322.4 21.6 318 20.3C313.7 19.1 308 20.8 302 22.6C295.6 24.5 289 26.5 282.5 25.6C276.1 24.7 270.5 21 265 17.5C259.6 14 254.5 10.7 249.9 10.7C245.3 10.7 240.2 14 234.8 17.5C229.3 21 223.7 24.7 217.3 25.6C210.7 26.5 204.2 24.6 197.8 22.6C191.8 20.8 186 19.1 181.8 20.3C177.4 21.6 173.5 26.1 169.3 31C165 36 160.6 41.1 154.7 43.7C148.7 46.4 141.9 46.4 135.3 46.3C129 46.3 123 46.2 119.2 48.6C115.4 51 112.9 56.5 110.3 62.2C107.6 68.2 104.8 74.3 99.9 78.6C95 82.8 88.4 84.7 82 86.5C75.9 88.2 70.1 89.9 67.1 93.2C64.1 96.6 63.3 102.5 62.5 108.7C61.6 115.2 60.7 121.9 57.1 127.4C53.6 132.8 47.8 136.4 42.2 139.9C36.8 143.3 31.7 146.5 29.8 150.6C27.9 154.6 28.8 160.5 29.8 166.7C30.8 173.2 31.8 179.9 30 186.2C28.2 192.3 23.7 197.4 19.4 202.2C15.2 207 11.2 211.5 10.5 216C9.89998 220.3 12.4 225.6 15.1 231.3C17.9 237.3 20.8 243.5 20.8 250.1C20.8 256.7 17.9 262.9 15.1 268.9C12.4 274.5 9.89998 279.9 10.5 284.2C11.2 288.7 15.2 293.2 19.4 298C23.7 302.9 28.2 307.9 30 314C31.9 320.3 30.8 327 29.8 333.5C28.9 339.7 28 345.6 29.8 349.6C31.7 353.7 36.8 356.9 42.2 360.3C47.8 363.8 53.5 367.4 57.1 372.8C60.6 378.3 61.6 385 62.5 391.5C63.4 397.7 64.2 403.6 67.1 407C70.1 410.4 75.8 412 82 413.7C88.4 415.5 94.9 417.4 99.9 421.6C104.8 425.8 107.6 432 110.3 438C112.9 443.8 115.3 449.2 119.2 451.6C123 454 129 454 135.3 453.9C141.9 453.9 148.8 453.8 154.7 456.5C160.6 459.2 165 464.3 169.3 469.2C173.5 474 177.4 478.6 181.8 479.9C186.1 481.1 191.8 479.4 197.8 477.6C203.1 476 208.5 474.4 213.9 474.4Z" fill="#FF6045"/>
<path d="M93.5651 199.695L98.0928 198.28C99.2731 198.176 100.244 198.346 101.005 198.79C101.766 199.233 102.166 199.686 102.207 200.15C102.244 200.571 102.194 201.213 102.057 202.075C101.92 202.936 100.932 211.306 99.0923 227.184C97.2531 243.063 95.9313 254.903 95.1271 262.704C101.442 252.339 108.761 239.613 117.084 224.527C125.406 209.441 130.164 199.488 131.357 194.669C131.734 193.149 132.287 191.953 133.018 191.082C133.749 190.211 134.425 189.685 135.047 189.503C135.664 189.279 136.626 189.11 137.933 188.996C139.24 188.881 140.805 189.042 142.627 189.477C144.488 189.867 145.475 190.715 145.589 192.022C145.807 194.509 142.745 201.998 136.404 214.49C130.063 226.981 122.733 240.302 114.413 254.454C106.135 268.602 99.1531 279.832 93.4661 288.146C92.4496 289.637 91.1193 290.454 89.4752 290.598C87.8732 290.738 86.1419 290.613 84.2812 290.224C82.459 289.789 81.4852 288.854 81.3598 287.421C80.9541 282.784 83.073 260.148 87.7165 219.514C81.5499 229.144 74.1966 242.446 65.6565 259.42C56.7428 276.98 51.7866 287.821 50.788 291.944C50.2394 294.413 49.4969 295.88 48.5605 296.344C47.9118 296.698 47.2081 296.908 46.4492 296.975L41.5035 297.981C40.5339 298.066 39.6246 297.869 38.7757 297.391C37.8846 296.917 37.4132 296.385 37.3616 295.794C37.2141 294.108 39.092 288.868 42.9952 280.073C46.9407 271.274 51.5822 261.692 56.9199 251.328C62.296 240.917 67.9702 230.757 73.9423 220.846C79.9144 210.936 84.6152 204.217 88.0447 200.688C88.7445 199.947 89.5792 199.534 90.5488 199.449L93.5651 199.695ZM162.444 214.25C162.655 216.653 161.75 219.175 159.729 221.816C157.705 224.414 155.471 225.82 153.025 226.034C150.623 226.244 149.31 225.085 149.089 222.555C148.868 220.026 149.711 217.531 151.62 215.07C153.567 212.563 155.827 211.197 158.398 210.972C159.536 210.873 160.47 211.11 161.2 211.683C161.93 212.256 162.345 213.112 162.444 214.25ZM157.03 270.351C157.141 271.616 157.094 272.533 156.889 273.103C155.192 277.5 152.202 281.202 147.92 284.21C143.634 287.176 139.826 288.805 136.496 289.097C133.166 289.388 130.201 288.522 127.603 286.498C125.004 284.473 123.604 282.302 123.401 279.983C123.198 277.665 124.062 274.191 125.994 269.562C127.925 264.932 129.886 260.64 131.876 256.685C133.867 252.731 134.849 250.606 134.823 250.311C134.793 249.973 134.296 249.38 133.329 248.53C132.405 247.676 131.924 247.038 131.887 246.617C131.847 246.153 132.61 244.918 134.176 242.912C135.78 240.86 137.747 238.819 140.076 236.789C142.443 234.712 144.28 233.617 145.587 233.503C146.936 233.385 148.189 233.87 149.346 234.958C150.503 236.046 151.124 237.075 151.209 238.045C151.294 239.014 147.076 248.58 138.554 266.742C138.45 267.006 138.142 267.607 137.629 268.544C137.155 269.435 136.775 270.19 136.489 270.81C136.242 271.384 135.943 272.09 135.591 272.927C134.895 274.687 134.597 276.137 134.697 277.275C134.822 278.708 135.855 279.34 137.794 279.17C139.733 279.001 141.678 278.172 143.63 276.684C145.62 275.151 147.303 273.517 148.681 271.782C152.271 267.178 154.34 264.851 154.888 264.804C155.984 264.708 156.698 266.557 157.03 270.351ZM197.776 185.48C199.8 185.303 201.624 185.76 203.249 186.85C204.912 187.894 205.847 189.596 206.053 191.957C206.26 194.317 205.277 198.142 203.106 203.429C200.931 208.674 198.241 214.092 195.034 219.683C191.824 225.231 188.158 231.159 184.037 237.467C177.521 247.467 171.216 256.493 165.124 264.545C165.126 265.055 165.02 266.02 164.804 267.441C164.627 268.815 164.599 270.198 164.721 271.59C164.843 272.981 165.586 274.19 166.95 275.218C168.353 276.199 170.003 276.607 171.9 276.441C173.797 276.275 175.761 275.424 177.793 273.887C179.867 272.346 181.633 270.683 183.092 268.899C186.927 264.188 189.351 261.788 190.363 261.7C191.375 261.611 192.015 263.106 192.284 266.183L192.395 267.448C192.539 269.092 192.349 270.319 191.825 271.13C188.664 275.782 184.964 279.376 180.726 281.914C176.484 284.409 172.381 285.83 168.419 286.176C164.456 286.523 161.336 285.585 159.061 283.363C156.781 281.099 155.457 277.859 155.088 273.643C154.369 265.422 155.716 255.577 159.131 244.106C162.583 232.589 166.73 222.69 171.57 214.408C182.465 195.698 191.2 186.056 197.776 185.48ZM195.849 196.226C195.794 195.594 195.556 195.296 195.134 195.333C193.658 195.462 190.149 200.017 184.605 208.998C179.061 217.979 175.097 225.101 172.711 230.365C170.368 235.625 168.284 242.158 166.461 249.964C170.919 243.627 176.987 233.835 184.664 220.59C192.379 207.299 196.107 199.177 195.849 196.226ZM192.896 268.806L192.921 269.823C193.014 270.877 193.493 271.748 194.361 272.437C195.228 273.126 195.999 273.441 196.674 273.382C201.732 272.939 206.135 271.789 209.88 269.932C213.668 268.072 215.496 266.383 215.363 264.865C215.3 264.148 214.53 263.6 213.052 263.219C211.613 262.793 209.174 262.348 205.735 261.884C202.335 261.375 199.857 260.975 198.303 260.687C196.745 260.356 195.506 260.039 194.588 259.737C193.669 259.435 192.717 258.988 191.73 258.394C189.627 257.176 188.456 255.197 188.216 252.457C187.973 249.675 188.745 246.846 190.532 243.971C192.358 241.05 194.725 238.486 197.633 236.277C200.541 234.069 203.701 232.072 207.113 230.287C213.856 226.765 219.61 224.797 224.373 224.38C229.053 223.97 232.029 224.729 233.302 226.657C233.702 227.344 233.941 228.13 234.018 229.016L234.057 229.458C234.253 231.693 233.921 233.485 233.062 234.834C232.245 236.18 230.848 237.449 228.871 238.642C226.936 239.83 225.357 240.478 224.135 240.585C222.954 240.689 222.188 240.671 221.836 240.532C221.526 240.389 221.255 240.2 221.022 239.966C220.785 239.689 220.493 239.502 220.144 239.405C219.838 239.304 219.663 239.001 219.619 238.495C219.575 237.989 219.741 237.465 220.118 236.922C220.492 236.337 220.737 235.743 220.854 235.138C218.083 235.507 215.231 236.415 212.299 237.861C209.364 239.265 206.862 240.78 204.796 242.405C202.771 244.026 201.099 245.553 199.78 246.985C198.461 248.417 197.83 249.45 197.885 250.082C197.936 250.672 198.948 251.072 200.921 251.282C209.799 252.247 215.663 253.242 218.514 254.267C221.364 255.292 223.387 256.559 224.581 258.069C225.775 259.579 226.429 260.987 226.544 262.294C226.78 264.992 225.928 267.636 223.988 270.227C222.048 272.818 219.564 275.011 216.535 276.805C210.039 280.73 204.262 282.913 199.203 283.356C194.186 283.794 190.64 283.319 188.564 281.929C186.535 280.577 185.427 278.847 185.243 276.739C185.059 274.632 185.416 272.646 186.315 270.784C187.252 268.875 188.564 267.847 190.251 267.699C191.937 267.552 192.819 267.921 192.896 268.806ZM288.741 254.367C289.206 256.281 289.488 257.806 289.587 258.945C289.683 260.041 289.557 261.029 289.209 261.909C288.9 262.743 288.116 263.98 286.858 265.619C285.638 267.213 284.146 268.851 282.382 270.535C278.065 274.608 273.483 276.857 268.635 277.281C261.679 277.89 257.932 275.116 257.393 268.962C256.925 263.608 260.65 252.534 268.569 235.742C268.855 235.122 269.05 234.68 269.154 234.416C266.107 236.977 260.433 243.739 252.132 254.703C243.869 265.621 238.404 273.32 235.738 277.802C235.518 278.203 234.923 278.68 233.951 279.232C232.98 279.784 232.199 280.086 231.609 280.138C231.061 280.186 230.454 280.048 229.789 279.724C229.085 279.446 228.649 279.314 228.48 279.329C227.932 279.377 227.641 279.211 227.608 278.831C227.579 278.494 228.17 276.51 229.381 272.878C230.547 269.208 232.123 264.652 234.111 259.21C239.553 244.206 247.882 224.574 259.098 200.315C263.027 191.815 266.151 185.764 268.469 182.163C270.114 179.598 273.128 178.123 277.513 177.74C278.44 177.659 278.991 177.887 279.165 178.424C279.34 178.961 279.455 179.545 279.51 180.178C279.565 180.81 279.494 181.453 279.297 182.108L273.454 193.26C261.878 215.343 253.297 233.552 247.712 247.889C253.588 239.304 259.435 232.569 265.252 227.685C268.848 224.609 271.595 222.988 273.492 222.822C275.431 222.653 277.208 222.816 278.823 223.312C280.435 223.765 281.342 225.152 281.545 227.47C281.619 228.313 280.522 231.553 278.253 237.189C271.449 254.096 268.126 263.456 268.285 265.269C268.44 267.039 269.255 267.86 270.731 267.731C272.88 267.543 276.007 265.167 280.111 260.602C283.207 257.145 285.158 254.936 285.966 253.973C286.439 253.549 286.886 253.319 287.308 253.282C288.109 253.212 288.586 253.574 288.741 254.367ZM329.737 221.151C332.941 220.871 334.639 221.827 334.831 224.019C334.934 225.199 334.736 226.088 334.235 226.684C333.735 227.28 332.715 229.217 331.176 232.495C329.674 235.727 328.04 239.863 326.272 244.903C324.542 249.897 323.511 254.129 323.177 257.599C323.087 258.032 323.076 258.627 323.142 259.386C323.345 261.705 324.079 262.809 325.343 262.698C326.608 262.587 328.053 261.866 329.678 260.535C331.3 259.161 332.726 257.741 333.957 256.274C335.184 254.764 336.367 253.238 337.507 251.694C338.688 250.146 339.396 249.256 339.631 249.023C339.865 248.79 340.235 248.651 340.741 248.607C341.542 248.537 342.081 249.106 342.356 250.314C342.632 251.522 342.827 252.779 342.941 254.086C343.055 255.393 343.008 256.31 342.8 256.838C341.787 259.348 339.342 262.472 335.463 266.209C331.627 269.943 328.002 271.96 324.587 272.258C321.214 272.553 318.637 271.738 316.854 269.813C315.071 267.887 314.071 265.681 313.854 263.194C313.632 260.664 313.86 258.414 314.537 256.443C311.437 261.302 307.748 265.512 303.472 269.072C299.238 272.628 295.687 274.532 292.821 274.783C289.954 275.034 287.539 274.374 285.575 272.804C283.068 270.857 281.649 267.986 281.317 264.192C280.981 260.356 281.489 256.446 282.839 252.462C284.228 248.433 286.176 244.715 288.682 241.31C291.184 237.863 293.986 234.687 297.087 231.781C303.606 225.689 309.816 222.384 315.718 221.868C317.994 221.669 319.882 221.886 321.382 222.519C322.882 223.153 323.871 224.022 324.35 225.127C325.229 223.521 325.989 222.499 326.631 222.06C327.31 221.576 328.346 221.273 329.737 221.151ZM321.941 228.906C314.732 229.537 307.621 234.194 300.607 242.879C298.118 245.986 295.889 249.643 293.921 253.85C291.994 258.054 291.096 260.894 291.225 262.37C291.354 263.845 291.84 264.546 292.683 264.472C293.864 264.369 296.949 261.763 301.939 256.653C306.926 251.502 310.209 247.753 311.788 245.406C313.513 242.791 316.897 237.291 321.941 228.906ZM373.523 195.783C373.733 198.186 372.828 200.708 370.808 203.349C368.784 205.947 366.549 207.353 364.104 207.567C361.701 207.777 360.389 206.618 360.168 204.088C359.946 201.559 360.79 199.064 362.699 196.603C364.646 194.096 366.905 192.73 369.477 192.505C370.615 192.406 371.549 192.643 372.279 193.216C373.009 193.789 373.423 194.645 373.523 195.783ZM368.109 251.884C368.219 253.149 368.172 254.066 367.967 254.636C366.27 259.033 363.281 262.735 358.999 265.743C354.713 268.709 350.905 270.338 347.574 270.63C344.244 270.921 341.28 270.055 338.681 268.031C336.083 266.006 334.682 263.835 334.479 261.517C334.276 259.198 335.141 255.724 337.072 251.095C339.003 246.465 340.964 242.173 342.955 238.218C344.945 234.264 345.927 232.139 345.901 231.844C345.872 231.506 345.374 230.913 344.408 230.063C343.483 229.209 343.003 228.571 342.966 228.15C342.925 227.686 343.688 226.451 345.254 224.445C346.859 222.393 348.825 220.352 351.154 218.322C353.521 216.246 355.358 215.15 356.665 215.036C358.014 214.918 359.267 215.403 360.424 216.491C361.582 217.579 362.203 218.608 362.287 219.578C362.372 220.547 358.154 230.113 349.633 248.275C349.529 248.539 349.22 249.14 348.707 250.077C348.233 250.968 347.853 251.723 347.567 252.343C347.32 252.917 347.021 253.623 346.67 254.46C345.974 256.22 345.676 257.67 345.775 258.808C345.901 260.241 346.933 260.873 348.872 260.703C350.812 260.534 352.757 259.705 354.708 258.217C356.698 256.684 358.382 255.05 359.759 253.315C363.349 248.711 365.418 246.384 365.967 246.337C367.063 246.241 367.777 248.09 368.109 251.884ZM408.855 167.014C410.878 166.836 412.703 167.293 414.327 168.383C415.99 169.427 416.925 171.129 417.132 173.49C417.338 175.85 416.356 179.675 414.185 184.962C412.01 190.207 409.319 195.625 406.113 201.216C402.902 206.764 399.237 212.692 395.116 219C388.599 229 382.295 238.026 376.203 246.078C376.205 246.588 376.098 247.553 375.883 248.974C375.705 250.348 375.678 251.731 375.799 253.123C375.921 254.514 376.664 255.723 378.028 256.751C379.431 257.732 381.081 258.14 382.978 257.974C384.875 257.808 386.84 256.957 388.872 255.42C390.946 253.879 392.712 252.216 394.17 250.432C398.006 245.721 400.43 243.321 401.441 243.233C402.453 243.144 403.094 244.639 403.363 247.716L403.474 248.981C403.617 250.625 403.427 251.852 402.904 252.663C399.742 257.315 396.042 260.909 391.804 263.447C387.562 265.942 383.46 267.363 379.497 267.709C375.534 268.056 372.415 267.118 370.139 264.896C367.859 262.632 366.535 259.392 366.166 255.176C365.447 246.955 366.795 237.11 370.209 225.639C373.662 214.122 377.808 204.223 382.648 195.941C393.543 177.231 402.279 167.589 408.855 167.014ZM406.928 177.759C406.872 177.127 406.634 176.829 406.212 176.866C404.737 176.995 401.227 181.55 395.684 190.531C390.14 199.512 386.175 206.634 383.79 211.898C381.446 217.158 379.363 223.691 377.539 231.497C381.998 225.16 388.065 215.369 395.742 202.123C403.457 188.832 407.186 180.71 406.928 177.759ZM442.243 164.092C444.267 163.915 446.091 164.372 447.715 165.462C449.378 166.505 450.313 168.208 450.52 170.569C450.726 172.929 449.744 176.753 447.573 182.041C445.398 187.286 442.707 192.704 439.501 198.295C436.29 203.843 432.625 209.771 428.504 216.079C421.987 226.079 415.683 235.105 409.591 243.157C409.593 243.667 409.486 244.632 409.271 246.052C409.094 247.427 409.066 248.81 409.188 250.201C409.309 251.593 410.052 252.802 411.417 253.83C412.819 254.811 414.469 255.219 416.366 255.053C418.263 254.887 420.228 254.036 422.26 252.499C424.334 250.958 426.1 249.295 427.558 247.511C431.394 242.8 433.818 240.4 434.829 240.312C435.841 240.223 436.482 241.718 436.751 244.795L436.862 246.06C437.005 247.704 436.815 248.931 436.292 249.742C433.13 254.394 429.431 257.988 425.192 260.526C420.95 263.021 416.848 264.442 412.885 264.788C408.922 265.135 405.803 264.197 403.527 261.975C401.248 259.711 399.923 256.471 399.555 252.255C398.835 244.034 400.183 234.189 403.597 222.718C407.05 211.201 411.196 201.302 416.037 193.02C426.931 174.31 435.667 164.668 442.243 164.092ZM440.316 174.838C440.261 174.206 440.022 173.908 439.6 173.945C438.125 174.074 434.615 178.629 429.072 187.61C423.528 196.591 419.563 203.713 417.178 208.977C414.834 214.237 412.751 220.77 410.928 228.576C415.386 222.239 421.453 212.447 429.13 199.202C436.845 185.911 440.574 177.789 440.316 174.838ZM466.605 187.64C466.815 190.043 465.91 192.564 463.89 195.205C461.866 197.803 459.631 199.21 457.186 199.424C454.783 199.634 453.471 198.474 453.25 195.945C453.028 193.415 453.872 190.92 455.781 188.459C457.728 185.953 459.987 184.587 462.559 184.362C463.697 184.262 464.631 184.499 465.361 185.072C466.091 185.646 466.505 186.502 466.605 187.64ZM461.19 243.74C461.301 245.005 461.254 245.922 461.049 246.493C459.352 250.889 456.363 254.591 452.081 257.6C447.795 260.566 443.987 262.195 440.656 262.486C437.326 262.777 434.362 261.911 431.763 259.887C429.165 257.863 427.764 255.692 427.561 253.373C427.358 251.054 428.223 247.58 430.154 242.951C432.085 238.322 434.046 234.03 436.037 230.075C438.027 226.12 439.009 223.995 438.983 223.7C438.954 223.363 438.456 222.769 437.489 221.919C436.565 221.065 436.085 220.428 436.048 220.006C436.007 219.543 436.77 218.308 438.336 216.302C439.941 214.25 441.907 212.208 444.236 210.178C446.603 208.102 448.44 207.007 449.747 206.892C451.096 206.774 452.349 207.259 453.506 208.348C454.663 209.436 455.284 210.465 455.369 211.434C455.454 212.404 451.236 221.97 442.715 240.132C442.611 240.396 442.302 240.996 441.789 241.933C441.315 242.824 440.935 243.58 440.649 244.199C440.402 244.773 440.103 245.479 439.751 246.317C439.056 248.077 438.758 249.526 438.857 250.664C438.983 252.098 440.015 252.729 441.954 252.56C443.894 252.39 445.839 251.561 447.79 250.074C449.78 248.54 451.464 246.906 452.841 245.172C456.431 240.567 458.5 238.241 459.048 238.193C460.145 238.097 460.859 239.946 461.19 243.74Z" fill="#FF6045"/>
<path d="M156.253 423.434H147.317L145.311 429H142.41L150.555 407.672H153.016L161.175 429H158.289L156.253 423.434ZM148.167 421.119H155.418L151.785 411.144L148.167 421.119ZM180.438 429H177.61L166.873 412.564V429H164.046V407.672H166.873L177.64 424.181V407.672H180.438V429ZM207.889 407.672V422.174C207.879 424.186 207.244 425.831 205.984 427.11C204.734 428.39 203.035 429.107 200.887 429.264L200.14 429.293C197.806 429.293 195.945 428.663 194.559 427.403C193.172 426.144 192.469 424.41 192.449 422.203V407.672H195.232V422.115C195.232 423.658 195.657 424.859 196.507 425.719C197.356 426.568 198.567 426.993 200.14 426.993C201.731 426.993 202.947 426.568 203.787 425.719C204.637 424.869 205.062 423.673 205.062 422.13V407.672H207.889ZM228.719 429H225.892L215.154 412.564V429H212.327V407.672H215.154L225.921 424.181V407.672H228.719V429ZM236.731 429H233.919V407.672H236.731V429ZM258.177 419.024C258.177 421.085 257.85 422.862 257.195 424.356C256.541 425.841 255.623 427.003 254.441 427.843L258.25 430.831L256.331 432.604L251.834 429.029C251.131 429.205 250.389 429.293 249.607 429.293C247.928 429.293 246.438 428.883 245.14 428.062C243.841 427.232 242.83 426.056 242.107 424.532C241.395 422.999 241.028 421.227 241.009 419.215V417.677C241.009 415.626 241.365 413.814 242.078 412.242C242.791 410.67 243.797 409.469 245.096 408.639C246.404 407.799 247.898 407.379 249.578 407.379C251.297 407.379 252.806 407.794 254.104 408.624C255.413 409.454 256.419 410.65 257.122 412.213C257.825 413.766 258.177 415.582 258.177 417.662V419.024ZM255.364 417.647C255.364 415.138 254.861 413.204 253.855 411.847C252.859 410.479 251.434 409.796 249.578 409.796C247.811 409.796 246.414 410.475 245.389 411.832C244.373 413.18 243.851 415.055 243.821 417.457V419.024C243.821 421.466 244.329 423.39 245.345 424.796C246.37 426.202 247.791 426.905 249.607 426.905C251.424 426.905 252.83 426.246 253.826 424.928C254.822 423.6 255.335 421.7 255.364 419.229V417.647ZM277.527 407.672V422.174C277.518 424.186 276.883 425.831 275.623 427.11C274.373 428.39 272.674 429.107 270.525 429.264L269.778 429.293C267.444 429.293 265.584 428.663 264.197 427.403C262.811 426.144 262.107 424.41 262.088 422.203V407.672H264.871V422.115C264.871 423.658 265.296 424.859 266.146 425.719C266.995 426.568 268.206 426.993 269.778 426.993C271.37 426.993 272.586 426.568 273.426 425.719C274.275 424.869 274.7 423.673 274.7 422.13V407.672H277.527ZM294.021 419.142H284.778V426.7H295.516V429H281.966V407.672H295.369V409.986H284.778V416.842H294.021V419.142ZM318.235 423.434H309.3L307.293 429H304.393L312.537 407.672H314.998L323.157 429H320.271L318.235 423.434ZM310.149 421.119H317.4L313.768 411.144L310.149 421.119ZM333.851 420.372H328.841V429H326.014V407.672H333.074C335.477 407.672 337.322 408.219 338.611 409.312C339.91 410.406 340.56 411.998 340.56 414.088C340.56 415.416 340.198 416.573 339.476 417.56C338.763 418.546 337.767 419.283 336.487 419.771L341.497 428.824V429H338.479L333.851 420.372ZM328.841 418.072H333.162C334.559 418.072 335.667 417.711 336.487 416.988C337.317 416.266 337.732 415.299 337.732 414.088C337.732 412.77 337.337 411.759 336.546 411.056C335.765 410.353 334.632 409.996 333.147 409.986H328.841V418.072ZM358.079 409.986H351.224V429H348.426V409.986H341.585V407.672H358.079V409.986Z" fill="#FF6045"/>
</g>
<defs>
<clipPath id="clip0">
<rect width="500" height="500" fill="white"/>
</clipPath>
</defs>
</svg>
